<svg width="36" height="44" viewBox="0 0 36 44" fill="none" xmlns="http://www.w3.org/2000/svg">
<path d="M9 37C8.175 37 7.46875 36.7063 6.88125 36.1187C6.29375 35.5312 6 34.825 6 34V19C6 18.175 6.29375 17.4688 6.88125 16.8812C7.46875 16.2937 8.175 16 9 16H10.5V13C10.5 10.925 11.2313 9.15625 12.6938 7.69375C14.1562 6.23125 15.925 5.5 18 5.5C20.075 5.5 21.8438 6.23125 23.3063 7.69375C24.7688 9.15625 25.5 10.925 25.5 13V16H27C27.825 16 28.5312 16.2937 29.1188 16.8812C29.7063 17.4688 30 18.175 30 19V34C30 34.825 29.7063 35.5312 29.1188 36.1187C28.5312 36.7063 27.825 37 27 37H9ZM9 34H27V19H9V34ZM18 29.5C18 29.5 18.2063 29.5 18.6188 29.5C19.0313 29.5 19.5313 29.2062 20.1188 28.6187C20.7063 28.0312 21 27.325 21 26.5C21 25.675 20.7063 24.9688 20.1188 24.3812C19.5313 23.7937 18.825 23.5 18 23.5C17.175 23.5 16.4688 23.7937 15.8813 24.3812C15.2938 24.9688 15 25.675 15 26.5C15 27.325 15.2938 28.0312 15.8813 28.6187C16.4688 29.2062 17.175 29.5 18 29.5ZM13.5 16H22.5V13C22.5 11.75 22.0625 10.6875 21.1875 9.8125C20.3125 8.9375 19.25 8.5 18 8.5C16.75 8.5 15.6875 8.9375 14.8125 9.8125C13.9375 10.6875 13.5 11.75 13.5 13V16Z" fill="white" fill-opacity="0.5"/>
</svg>
